<svg width="96" height="96" viewBox="0 0 96 96" fill="none" xmlns="http://www.w3.org/2000/svg">
<path d="M90.5839 71.4916C92.0279 73.9628 92.2316 76.9974 91.7983 79.8707C91.3654 82.7417 90.3035 85.403 89.278 87.0874C86.8857 91.0165 81.8966 92.1275 76.8401 91.9887C71.8075 91.8506 66.8726 90.4757 64.8148 89.6221L64.8112 89.6207L48.6258 83.0979C47.5817 82.6724 46.7085 82.5521 45.9775 82.7227C45.2341 82.8961 44.6965 83.3563 44.3042 83.9677C43.9176 84.5701 43.6632 85.3316 43.4738 86.148C43.2837 86.9673 43.1527 87.8717 43.0276 88.7703C42.8144 90.3017 41.2354 91.1937 39.5688 91.1705C38.7522 91.1591 37.9738 90.9217 37.408 90.4704C36.8528 90.0275 36.479 89.3617 36.479 88.4259V77.5391C36.479 75.8162 35.0757 74.4174 33.3419 74.4174C31.6081 74.4174 30.2048 75.8162 30.2048 77.5391V86.8826C30.2048 88.1201 29.1795 89.2385 27.8332 89.5916C26.5282 89.934 24.9497 89.5369 23.8979 87.7233C22.9855 86.1501 21.3165 85.454 19.7195 85.2994C18.1354 85.1459 16.5142 85.5139 15.6209 86.199C14.8013 86.8275 13.2856 87.9084 11.657 88.6522C10.8428 89.024 10.0157 89.3044 9.24385 89.4078C8.4725 89.5112 7.78154 89.4349 7.21107 89.1241C5.91155 88.4161 5.09499 87.6644 4.61189 86.9249C4.13162 86.1896 3.96897 85.4485 4.00476 84.7337C4.0774 83.2827 4.97135 81.9063 5.81025 80.9581C7.5165 79.0295 11.7516 74.3545 19.1584 72.3271C26.67 70.2711 37.7358 66.9179 43.2904 64.0672C48.6575 61.3128 53.5245 62.549 60.0688 64.0991L60.084 64.1027L60.0996 64.105C60.1064 64.1061 61.4848 64.315 63.5778 64.5732C65.0456 64.7542 66.2895 65.777 66.4444 67.2077L66.4555 67.3127C66.6803 69.5039 66.4146 70.7473 66.1421 72.0857C65.8594 73.4746 65.573 74.951 65.8287 77.5754C66.0925 80.2831 67.5859 81.8674 69.4078 82.3363C71.2045 82.7988 73.2468 82.154 74.5763 80.5723C75.0102 80.0561 75.3202 79.2559 75.5392 78.3617C75.7611 77.4561 75.9006 76.4076 75.9661 75.3552C76.0316 74.3019 76.0237 73.2357 75.9471 72.2924C75.8711 71.356 75.7256 70.5155 75.5038 69.9271C75.3057 69.4013 75.0782 68.2312 75.2845 67.2256C75.3863 66.7296 75.5871 66.3048 75.9163 66.0079C76.2391 65.7169 76.7253 65.5127 77.4745 65.5272C77.8469 65.5344 78.2149 65.5382 78.5768 65.5382C82.0525 65.5382 84.4646 66.0408 86.2937 67.0205C88.1167 67.9969 89.402 69.4692 90.5839 71.4916Z" fill="black"/>
<path d="M53.4972 35.3637C54.8772 34.7645 57.6786 35.2109 59.192 37.1007C59.7809 37.836 60.6563 38.9806 61.0382 40.1147C61.5011 41.4894 62.3763 44.0066 58.9556 44.809C55.5349 45.6114 52.697 44.8783 48.6422 45.7057C43.4541 46.7643 39.6613 51.3568 32.7263 55.1039C26.1074 58.6801 19.7037 61.3929 17.35 61.3929C14.8534 61.3929 14.1582 61.0618 13.3249 58.5874C12.6537 56.594 11.8383 55.393 13.3249 53.7684C15.424 51.4745 18.5543 52.2753 25.6505 48.8337C32.2829 45.6169 34.0958 40.1146 42.3466 38.9709C46.427 38.4052 50.3883 36.4209 53.4972 35.3637Z" fill="black"/>
<path d="M69.7047 14C71.1169 14 70.6177 20.5024 71.5307 23.7527C72.2486 26.3082 73.4784 29.1398 73.5826 31.7447C73.6645 33.7941 71.6617 37.499 67.4833 37.6847C64.6981 37.8085 63.1783 33.7499 62.7599 31.3689C62.0086 28.6091 64.7004 25.0514 65.485 23.7527C66.2696 22.454 68.2925 14 69.7047 14Z" fill="black"/>
</svg>
